<?xml version="1.0" encoding="UTF-8" standalone="no"?>
<svg
   width="512"
   height="512"
   viewBox="0 0 512 512"
   version="1.1"
   id="svg2"
   sodipodi:docname="codium_clt.svg"
   inkscape:version="1.3.2 (091e20e, 2023-11-25)"
   xmlns:inkscape="http://www.inkscape.org/namespaces/inkscape"
   xmlns:sodipodi="http://sodipodi.sourceforge.net/DTD/sodipodi-0.dtd"
   xmlns="http://www.w3.org/2000/svg"
   xmlns:svg="http://www.w3.org/2000/svg">
  <defs
     id="defs2">
    <inkscape:path-effect
       effect="powerstroke"
       id="path-effect12"
       is_visible="true"
       lpeversion="1.3"
       scale_width="1"
       interpolator_type="CentripetalCatmullRom"
       interpolator_beta="0.75"
       start_linecap_type="round"
       end_linecap_type="round"
       offset_points="3.0915429,4.0677966"
       linejoin_type="spiro"
       miter_limit="4"
       not_jump="true"
       sort_points="true"
       message="&lt;b&gt;Ctrl + click&lt;/b&gt; on existing node and move it" />
    <inkscape:path-effect
       effect="simplify"
       id="path-effect11"
       is_visible="true"
       lpeversion="1.3"
       threshold="0.012"
       steps="1"
       smooth_angles="0"
       helper_size="0"
       simplify_individual_paths="false"
       simplify_just_coalesce="false"
       step="1" />
    <inkscape:path-effect
       effect="powerstroke"
       id="path-effect10"
       is_visible="true"
       lpeversion="1.3"
       scale_width="1"
       interpolator_type="CentripetalCatmullRom"
       interpolator_beta="0.75"
       start_linecap_type="round"
       end_linecap_type="round"
       offset_points="6.6295121,4.0677966"
       linejoin_type="spiro"
       miter_limit="4"
       not_jump="true"
       sort_points="true"
       message="&lt;b&gt;Ctrl + click&lt;/b&gt; on existing node and move it" />
    <inkscape:path-effect
       effect="simplify"
       id="path-effect9"
       is_visible="true"
       lpeversion="1.3"
       threshold="0.012"
       steps="1"
       smooth_angles="0"
       helper_size="0"
       simplify_individual_paths="false"
       simplify_just_coalesce="false"
       step="1" />
    <inkscape:path-effect
       effect="powerstroke"
       id="path-effect8"
       is_visible="true"
       lpeversion="1.3"
       scale_width="1"
       interpolator_type="CentripetalCatmullRom"
       interpolator_beta="0.75"
       start_linecap_type="round"
       end_linecap_type="round"
       offset_points="6.3699494,4.0677966"
       linejoin_type="spiro"
       miter_limit="4"
       not_jump="true"
       sort_points="true"
       message="&lt;b&gt;Ctrl + click&lt;/b&gt; on existing node and move it" />
    <inkscape:path-effect
       effect="simplify"
       id="path-effect7"
       is_visible="true"
       lpeversion="1.3"
       threshold="0.012"
       steps="1"
       smooth_angles="0"
       helper_size="0"
       simplify_individual_paths="false"
       simplify_just_coalesce="false"
       step="1" />
  </defs>
  <sodipodi:namedview
     id="namedview2"
     pagecolor="#ffffff"
     bordercolor="#000000"
     borderopacity="0.25"
     inkscape:showpageshadow="2"
     inkscape:pageopacity="0.0"
     inkscape:pagecheckerboard="0"
     inkscape:deskcolor="#d1d1d1"
     showgrid="false"
     inkscape:zoom="1.3037281"
     inkscape:cx="97.412948"
     inkscape:cy="197.5105"
     inkscape:window-width="1512"
     inkscape:window-height="916"
     inkscape:window-x="0"
     inkscape:window-y="38"
     inkscape:window-maximized="1"
     inkscape:current-layer="svg2">
    <inkscape:grid
       id="grid2"
       units="px"
       originx="0"
       originy="0"
       spacingx="1"
       spacingy="1"
       empcolor="#0099e5"
       empopacity="0.30196078"
       color="#0099e5"
       opacity="0.14901961"
       empspacing="5"
       dotted="false"
       gridanglex="30"
       gridanglez="30"
       visible="false" />
  </sodipodi:namedview>
  <path
     d=""
     stroke="none"
     fill="#fc5404"
     fill-rule="evenodd"
     id="path2"
     style="display:inline" />
  <path
     fill="#226699"
     d="M 408.62555,160.63022 H 106.17008 a 43.207925,35.935335 0 0 0 -43.207935,35.93533 v 134.7575 a 43.207925,35.935335 0 0 0 43.207935,35.93534 h 123.31541 c 5.61703,5.35436 15.95453,8.98383 27.91233,8.98383 11.95779,0 22.30608,-3.62947 27.91231,-8.98383 h 123.31542 a 43.207925,35.935335 0 0 0 43.20793,-35.93534 v -134.7575 a 43.207925,35.935335 0 0 0 -43.20793,-35.93533 z"
     id="path1"
     style="stroke-width:9.851" />
  <path
     fill="#292f33"
     d="m 279.00177,340.30688 a 21.603963,17.967667 0 0 1 -43.20792,0 v -161.709 a 21.603963,17.967667 0 0 1 43.20792,0 z"
     id="path2-2"
     style="stroke-width:9.851" />
  <path
     fill="#99aab5"
     d="m 257.39782,331.32305 a 21.603963,17.967667 0 0 1 -21.60397,17.96767 H 106.17008 A 21.603963,17.967667 0 0 1 84.566108,331.32305 v -161.709 a 21.603963,17.967667 0 0 1 21.603972,-17.96767 h 129.62377 a 21.603963,17.967667 0 0 1 21.60397,17.96767 z"
     id="path3"
     style="stroke-width:9.851" />
  <path
     fill="#e1e8ed"
     d="m 257.39782,331.32305 c -10.79119,-17.9497 -39.50285,-17.96766 -43.20793,-17.96766 -21.60397,0 -54.00991,17.96766 -86.41585,17.96766 -10.80198,0 -21.60396,-8.04951 -21.60396,-17.96766 V 169.61405 c 0,-9.91815 10.80198,-17.96767 21.60396,-17.96767 35.16044,0 64.81188,-17.96767 86.41585,-17.96767 32.40594,0 43.20793,17.03336 43.20793,26.95151 z"
     id="path4"
     style="stroke-width:9.851" />
  <path
     fill="#99aab5"
     d="m 430.22952,331.32305 a 21.603963,17.967667 0 0 1 -21.60397,17.96767 H 279.00177 a 21.603963,17.967667 0 0 1 -21.60395,-17.96767 v -161.709 a 21.603963,17.967667 0 0 1 21.60395,-17.96767 h 129.62378 a 21.603963,17.967667 0 0 1 21.60397,17.96767 z"
     id="path5"
     style="stroke-width:9.851" />
  <path
     fill="#ccd6dd"
     d="m 257.39782,331.32305 c 10.79118,-17.9497 39.50284,-17.96766 43.20792,-17.96766 21.60397,0 54.0099,17.96766 86.41585,17.96766 10.80198,0 21.60396,-8.04951 21.60396,-17.96766 V 169.61405 c 0,-9.91815 -10.80198,-17.96767 -21.60396,-17.96767 -35.17125,0 -64.81188,-17.96767 -86.41585,-17.96767 -32.40595,0 -43.20792,17.03336 -43.20792,26.95151 z"
     id="path6"
     style="stroke-width:9.851" />
</svg>
