<?xml version="1.0" encoding="UTF-8" standalone="no"?>
<svg
   width="512"
   height="512"
   viewBox="0 0 512 512"
   version="1.1"
   id="svg2"
   sodipodi:docname="codium_cnl.svg"
   inkscape:version="1.3.2 (091e20e, 2023-11-25)"
   xmlns:inkscape="http://www.inkscape.org/namespaces/inkscape"
   xmlns:sodipodi="http://sodipodi.sourceforge.net/DTD/sodipodi-0.dtd"
   xmlns="http://www.w3.org/2000/svg"
   xmlns:svg="http://www.w3.org/2000/svg">
  <defs
     id="defs2" />
  <sodipodi:namedview
     id="namedview2"
     pagecolor="#ffffff"
     bordercolor="#000000"
     borderopacity="0.25"
     inkscape:showpageshadow="2"
     inkscape:pageopacity="0.0"
     inkscape:pagecheckerboard="0"
     inkscape:deskcolor="#d1d1d1"
     inkscape:zoom="0.4609375"
     inkscape:cx="254.91525"
     inkscape:cy="254.91525"
     inkscape:window-width="1512"
     inkscape:window-height="916"
     inkscape:window-x="0"
     inkscape:window-y="38"
     inkscape:window-maximized="1"
     inkscape:current-layer="svg2" />
  <path
     d=""
     stroke="none"
     fill="#fc5404"
     fill-rule="evenodd"
     id="path2" />
  <path
     d=""
     stroke="none"
     fill="#fc5404"
     fill-rule="evenodd"
     id="path2-7"
     style="display:inline" />
  <path
     fill="#226699"
     d="M 413.49391,169.84982 H 111.03844 a 43.207925,35.935335 0 0 0 -43.207932,35.93533 v 134.7575 a 43.207925,35.935335 0 0 0 43.207932,35.93534 h 123.31541 c 5.61703,5.35436 15.95453,8.98383 27.91233,8.98383 11.95779,0 22.30608,-3.62947 27.91231,-8.98383 h 123.31542 a 43.207925,35.935335 0 0 0 43.20793,-35.93534 v -134.7575 a 43.207925,35.935335 0 0 0 -43.20793,-35.93533 z"
     id="path1"
     style="stroke-width:9.851" />
  <path
     fill="#292f33"
     d="m 283.87013,349.52648 a 21.603963,17.967667 0 0 1 -43.20791,0 v -161.709 a 21.603963,17.967667 0 0 1 43.20791,0 z"
     id="path2-2"
     style="stroke-width:9.851" />
  <path
     fill="#99aab5"
     d="m 262.26618,340.54265 a 21.603963,17.967667 0 0 1 -21.60396,17.96767 H 111.03844 A 21.603963,17.967667 0 0 1 89.434471,340.54265 v -161.709 a 21.603963,17.967667 0 0 1 21.603969,-17.96767 h 129.62378 a 21.603963,17.967667 0 0 1 21.60396,17.96767 z"
     id="path3"
     style="stroke-width:9.851" />
  <path
     fill="#e1e8ed"
     d="m 262.26618,340.54265 c -10.79118,-17.9497 -39.50284,-17.96766 -43.20792,-17.96766 -21.60397,0 -54.00991,17.96766 -86.41585,17.96766 -10.80198,0 -21.60396,-8.04951 -21.60396,-17.96766 V 178.83365 c 0,-9.91815 10.80198,-17.96767 21.60396,-17.96767 35.16044,0 64.81188,-17.96767 86.41585,-17.96767 32.40594,0 43.20792,17.03336 43.20792,26.95151 z"
     id="path4"
     style="stroke-width:9.851" />
  <path
     fill="#99aab5"
     d="m 435.09788,340.54265 a 21.603963,17.967667 0 0 1 -21.60397,17.96767 H 283.87013 a 21.603963,17.967667 0 0 1 -21.60395,-17.96767 v -161.709 a 21.603963,17.967667 0 0 1 21.60395,-17.96767 h 129.62378 a 21.603963,17.967667 0 0 1 21.60398,17.96767 z"
     id="path5"
     style="stroke-width:9.851" />
  <path
     fill="#ccd6dd"
     d="m 262.26618,340.54265 c 10.79118,-17.9497 39.50284,-17.96766 43.20792,-17.96766 21.60397,0 54.00991,17.96766 86.41586,17.96766 10.80198,0 21.60396,-8.04951 21.60396,-17.96766 V 178.83365 c 0,-9.91815 -10.80198,-17.96767 -21.60396,-17.96767 -35.17125,0 -64.81188,-17.96767 -86.41585,-17.96767 -32.40595,0 -43.20792,17.03336 -43.20792,26.95151 z"
     id="path6"
     style="stroke-width:9.851" />
</svg>
